# xmcd
#
# Track frame offsets:
#	150
#	18107
#	39941
#	66771
#	83672
#	94562
#	106872
#	129307
#	144105
#	170574
#	183015
#	205053
#	216568
#	235044
#	250030
#
# Disc length: 3509 seconds
#
# Revision: 0
# Processed by: cddbd v1.5.2PL0 Copyright (c) Steve Scherf et al.
# Submitted via: audiograbber 1.83.01
#
DISCID=b30db30f
DTITLE=Various Artist - Ultimate Southern Rock - CD 2
DYEAR=2003
DGENRE=Southern Rock
TTITLE0=Charlie Daniels Band - The South's Gonna Do It (Again)
TTITLE1=Molly Hatchet - The Rambler
TTITLE2=The Dicky Betts Band - Duane's Tune
TTITLE3=The Gregg Allman Band - I'm No Angel
TTITLE4=Stevie Ray Vaughan and Double Trouble - The House Is Rockin'
TTITLE5=The Fabolous Thunderbirds - Wrap It Up
TTITLE6=The Vaughan Brothers - Tick-Tock
TTITLE7=Molly Hatchet with Ted Nugent and Charlie Daniels Band - Mississippi Qu
TTITLE7=een
TTITLE8=The Outlaws - (Ghost) Riders In The Sky
TTITLE9=Johnny Winter - Johnny B. Good
TTITLE10=Wet Willie - Street Corner Serenade
TTITLE11=Barefoot Jerry - Boogie Woogie
TTITLE12=The Outlaws - Hurry Sundown
TTITLE13=Charlie Daniels Band - In America
TTITLE14=Waylon Jennings and Willie Nelson - Good Hearted Woman (Live)
EXTD=
EXTT0=
EXTT1=
EXTT2=
EXTT3=
EXTT4=
EXTT5=
EXTT6=
EXTT7=
EXTT8=
EXTT9=
EXTT10=
EXTT11=
EXTT12=
EXTT13=
EXTT14=
PLAYORDER=
